<svg xmlns="http://www.w3.org/2000/svg" width="56" height="56" viewBox="0 0 56 56" fill="none">
  <ellipse cx="42.7889" cy="49.0415" rx="0.953919" ry="0.958952" fill="#00619E"/>
  <ellipse cx="38.9734" cy="49.0415" rx="0.953919" ry="0.958952" fill="#00619E"/>
  <ellipse cx="44.6966" cy="47.1235" rx="0.953919" ry="0.958952" fill="#00619E"/>
  <ellipse cx="40.8812" cy="47.1235" rx="0.953919" ry="0.958952" fill="#00619E"/>
  <ellipse cx="42.7889" cy="45.2055" rx="0.953919" ry="0.958952" fill="#00619E"/>
  <ellipse cx="46.6043" cy="45.2055" rx="0.953919" ry="0.958952" fill="#00619E"/>
  <ellipse cx="37.0652" cy="47.1235" rx="0.953919" ry="0.958952" fill="#00619E"/>
  <ellipse cx="35.1575" cy="45.2055" rx="0.953919" ry="0.958952" fill="#00619E"/>
  <ellipse cx="38.9734" cy="45.2055" rx="0.953919" ry="0.958952" fill="#00619E"/>
  <ellipse cx="48.5125" cy="43.2876" rx="0.953919" ry="0.958952" fill="#00619E"/>
  <ellipse cx="44.6966" cy="43.2876" rx="0.953919" ry="0.958952" fill="#00619E"/>
  <ellipse cx="40.8812" cy="43.2876" rx="0.953919" ry="0.958952" fill="#00619E"/>
  <ellipse cx="42.7889" cy="41.3696" rx="0.953919" ry="0.958952" fill="#00619E"/>
  <ellipse cx="46.6043" cy="41.3696" rx="0.953919" ry="0.958952" fill="#00619E"/>
  <ellipse cx="37.0652" cy="43.2876" rx="0.953919" ry="0.958952" fill="#00619E"/>
  <ellipse cx="48.5125" cy="39.4516" rx="0.953919" ry="0.958952" fill="#00619E"/>
  <ellipse cx="44.6966" cy="39.4516" rx="0.953919" ry="0.958952" fill="#00619E"/>
  <ellipse cx="46.6043" cy="37.5337" rx="0.953919" ry="0.958952" fill="#00619E"/>
  <ellipse cx="48.5125" cy="35.6157" rx="0.953919" ry="0.958952" fill="#00619E"/>
  <ellipse cx="44.6966" cy="35.6157" rx="0.953919" ry="0.958952" fill="#00619E"/>
  <ellipse cx="46.6043" cy="33.6982" rx="0.953919" ry="0.958952" fill="#00619E"/>
  <ellipse cx="44.6966" cy="31.7802" rx="0.953919" ry="0.958952" fill="#00619E"/>
  <ellipse cx="44.6966" cy="27.9443" rx="0.953919" ry="0.958952" fill="#00619E"/>
  <path d="M26 16.5L28.2078 13.3182C28.3461 13.1189 28.5733 13 28.8159 13V13C29.1026 13 29.3636 13.1657 29.4856 13.4252L36.0995 27.4926C36.6925 28.7539 37 30.1305 37 31.5243V31.7321C37 36.8506 32.8506 41 27.7321 41V41C23.9997 41 20.6315 38.7611 19.1867 35.3196L19 34.875" stroke="#00AED9" stroke-width="2" stroke-linecap="round"/>
  <path d="M39 25.5L41.2078 22.3182C41.3461 22.1189 41.5733 22 41.8159 22V22C42.1026 22 42.3636 22.1657 42.4856 22.4252L49.0995 36.4926C49.6925 37.7539 50 39.1305 50 40.5243V40.7321C50 45.8506 45.8506 50 40.7321 50V50C36.9997 50 33.6315 47.7611 32.1867 44.3196L32 43.875" stroke="#00619E" stroke-width="2" stroke-linecap="round"/>
  <path d="M23.054 18.4588L16.707 5.38198C16.2967 4.53669 15.4396 4 14.5 4C13.5604 4 12.7034 4.53669 12.2931 5.38198L5.94604 18.4588C5.32346 19.7415 5 21.1487 5 22.5745C5 27.78 9.29442 32 14.5 32C19.7056 32 24 27.78 24 22.5745C24 21.1487 23.6765 19.7415 23.054 18.4588Z" stroke="#00619E" stroke-width="2"/>
</svg>
