<svg xmlns="http://www.w3.org/2000/svg" width="56" height="56" viewBox="0 0 56 56" fill="none">
  <path d="M48 24V36.5M52 20H49C48.4477 20 48 19.5523 48 19V17C48 15.8954 47.1046 15 46 15H7C4.79086 15 3 16.7909 3 19V37C3 39.2091 4.79086 41 7 41H46C47.1046 41 48 40.1046 48 39V37C48 36.4477 48.4477 36 49 36H52C52.5523 36 53 35.5523 53 35V21C53 20.4477 52.5523 20 52 20Z" stroke="#00619E" stroke-width="2" stroke-linecap="round"/>
  <path d="M31.5172 27.4321C31.7269 27.0991 31.4876 26.6656 31.0941 26.6656H28.235L29.8797 20L24.4828 28.5679C24.2731 28.9009 24.5124 29.3344 24.9059 29.3344H27.765L26.1203 36L31.5172 27.4321Z" fill="#00AED9" stroke="#00AED9" stroke-linejoin="round"/>
</svg>
