<svg width="56" height="56" viewBox="0 0 56 56" fill="none" xmlns="http://www.w3.org/2000/svg">
<path d="M43 24H44V23H43V24ZM12 24V23H11V24H12ZM30.4028 42.1469L29.5836 42.7204L29.5836 42.7204L30.4028 42.1469ZM41 43V44C41.4589 44 41.8589 43.6877 41.9701 43.2425L41 43ZM16.0689 25C16.6212 25 17.0689 24.5523 17.0689 24C17.0689 23.4477 16.6212 23 16.0689 23V25ZM13 20.5C13 19.9477 12.5523 19.5 12 19.5C11.4477 19.5 11 19.9477 11 20.5H13ZM11 30.5C11 31.0523 11.4477 31.5 12 31.5C12.5523 31.5 13 31.0523 13 30.5H11ZM12 29C12.5523 29 13 28.5523 13 28C13 27.4477 12.5523 27 12 27V29ZM8 27C7.44772 27 7 27.4477 7 28C7 28.5523 7.44772 29 8 29V27ZM43 29H47V27H43V29ZM48 30V33.7857H50V30H48ZM42.9959 39.0905L43.9959 28.0905L42.0041 27.9095L41.0041 38.9095L42.9959 39.0905ZM47.2857 34.5C46.3159 34.5 45.4522 35.0776 44.8154 35.6163C44.1435 36.1846 43.5105 36.8993 43.003 37.4787C42.7401 37.7788 42.5159 38.0372 42.3167 38.251C42.107 38.4761 41.9814 38.5893 41.92 38.6321C41.8864 38.6556 41.9394 38.6095 42.0595 38.5817C42.2127 38.5462 42.4925 38.5429 42.7465 38.7418C42.955 38.905 43.0003 39.0956 43.003 39.1062C43.0093 39.1313 43 39.1071 43 39H41C41 39.1887 41.0135 39.3961 41.0637 39.5953C41.1103 39.78 41.2207 40.0873 41.5136 40.3166C41.852 40.5815 42.2357 40.5938 42.5104 40.5302C42.7521 40.4743 42.9444 40.3563 43.066 40.2712C43.3153 40.0969 43.5644 39.8458 43.78 39.6145C44.006 39.3718 44.2576 39.0818 44.5075 38.7965C45.0256 38.205 45.566 37.6009 46.1071 37.1432C46.6833 36.6558 47.072 36.5 47.2857 36.5V34.5ZM48 33.7857C48 34.1802 47.6802 34.5 47.2857 34.5V36.5C48.7848 36.5 50 35.2848 50 33.7857H48ZM47 29C47.5523 29 48 29.4477 48 30H50C50 28.3431 48.6569 27 47 27V29ZM16 16H37.2727V14H16V16ZM13 20V19H11V20H13ZM42 20.7273C42 22.1844 41.6634 22.7736 41.5138 22.9721C41.4386 23.0719 41.3822 23.1136 41.3314 23.1531C41.3228 23.1597 41.3061 23.1728 41.2887 23.187C41.2741 23.199 41.2382 23.2286 41.1985 23.2684C41.1768 23.2902 41.0615 23.4029 40.982 23.5853C40.9368 23.6889 40.8826 23.8616 40.902 24.078C40.923 24.3122 41.023 24.5138 41.1583 24.6631C41.3784 24.906 41.6455 24.9616 41.6835 24.9704C41.7658 24.9895 41.8343 24.9946 41.861 24.9964C41.9179 25.0003 41.9772 25 42 25V23C41.9603 23 41.9728 22.9994 41.9967 23.001C42.0069 23.0017 42.0624 23.0052 42.1349 23.022C42.1632 23.0286 42.4239 23.0812 42.6405 23.3204C42.7741 23.4678 42.8732 23.6673 42.894 23.8992C42.9132 24.1132 42.8594 24.2833 42.8155 24.3841C42.7385 24.5609 42.6285 24.6669 42.6147 24.6806C42.5681 24.7274 42.5232 24.7599 42.5593 24.7318C42.649 24.662 42.8739 24.4906 43.1112 24.1756C43.5866 23.5446 44 22.4974 44 20.7273H42ZM37.2727 16C39.8909 16 42 18.0596 42 20.7273H44C44 16.9404 40.9808 14 37.2727 14V16ZM16 14C13.2386 14 11 16.2386 11 19H13C13 17.3431 14.3431 16 16 16V14ZM42 24V28H44V24H42ZM13 34V24H11V34H13ZM25.4174 38H17V40H25.4174V38ZM41.0299 38.7575L40.0299 42.7575L41.9701 43.2425L42.9701 39.2425L41.0299 38.7575ZM41 42H32.0413V44H41V42ZM29.5836 42.7204C30.145 43.5224 31.0624 44 32.0413 44V42C31.715 42 31.4092 41.8408 31.2221 41.5735L29.5836 42.7204ZM11 34C11 37.3137 13.6863 40 17 40V38C14.7909 38 13 36.2091 13 34H11ZM42 25H43V23H42V25ZM12 25C12.0036 25 12.0071 25 12.0107 25C12.0142 25 12.0178 25 12.0213 25C12.0249 25 12.0284 25 12.032 25C12.0356 25 12.0391 25 12.0427 25C12.0462 25 12.0498 25 12.0534 25C12.0569 25 12.0605 25 12.0641 25C12.0676 25 12.0712 25 12.0748 25C12.0784 25 12.0819 25 12.0855 25C12.0891 25 12.0927 25 12.0962 25C12.0998 25 12.1034 25 12.107 25C12.1106 25 12.1141 25 12.1177 25C12.1213 25 12.1249 25 12.1285 25C12.1321 25 12.1356 25 12.1392 25C12.1428 25 12.1464 25 12.15 25C12.1536 25 12.1572 25 12.1608 25C12.1644 25 12.168 25 12.1716 25C12.1752 25 12.1788 25 12.1824 25C12.186 25 12.1896 25 12.1932 25C12.1968 25 12.2004 25 12.204 25C12.2076 25 12.2112 25 12.2148 25C12.2184 25 12.222 25 12.2256 25C12.2293 25 12.2329 25 12.2365 25C12.2401 25 12.2437 25 12.2473 25C12.2509 25 12.2546 25 12.2582 25C12.2618 25 12.2654 25 12.269 25C12.2726 25 12.2763 25 12.2799 25C12.2835 25 12.2871 25 12.2908 25C12.2944 25 12.298 25 12.3016 25C12.3053 25 12.3089 25 12.3125 25C12.3162 25 12.3198 25 12.3234 25C12.327 25 12.3307 25 12.3343 25C12.3379 25 12.3416 25 12.3452 25C12.3488 25 12.3525 25 12.3561 25C12.3598 25 12.3634 25 12.367 25C12.3707 25 12.3743 25 12.378 25C12.3816 25 12.3852 25 12.3889 25C12.3925 25 12.3962 25 12.3998 25C12.4035 25 12.4071 25 12.4108 25C12.4144 25 12.418 25 12.4217 25C12.4253 25 12.429 25 12.4326 25C12.4363 25 12.4399 25 12.4436 25C12.4472 25 12.4509 25 12.4546 25C12.4582 25 12.4619 25 12.4655 25C12.4692 25 12.4728 25 12.4765 25C12.4801 25 12.4838 25 12.4875 25C12.4911 25 12.4948 25 12.4984 25C12.5021 25 12.5058 25 12.5094 25C12.5131 25 12.5167 25 12.5204 25C12.5241 25 12.5277 25 12.5314 25C12.5351 25 12.5387 25 12.5424 25C12.5461 25 12.5497 25 12.5534 25C12.5571 25 12.5607 25 12.5644 25C12.5681 25 12.5717 25 12.5754 25C12.5791 25 12.5827 25 12.5864 25C12.5901 25 12.5937 25 12.5974 25C12.6011 25 12.6048 25 12.6084 25C12.6121 25 12.6158 25 12.6194 25C12.6231 25 12.6268 25 12.6305 25C12.6341 25 12.6378 25 12.6415 25C12.6452 25 12.6488 25 12.6525 25C12.6562 25 12.6599 25 12.6636 25C12.6672 25 12.6709 25 12.6746 25C12.6783 25 12.6819 25 12.6856 25C12.6893 25 12.693 25 12.6967 25C12.7003 25 12.704 25 12.7077 25C12.7114 25 12.7151 25 12.7187 25C12.7224 25 12.7261 25 12.7298 25C12.7335 25 12.7372 25 12.7408 25C12.7445 25 12.7482 25 12.7519 25C12.7556 25 12.7592 25 12.7629 25C12.7666 25 12.7703 25 12.774 25C12.7777 25 12.7814 25 12.785 25C12.7887 25 12.7924 25 12.7961 25C12.7998 25 12.8035 25 12.8071 25C12.8108 25 12.8145 25 12.8182 25C12.8219 25 12.8256 25 12.8293 25C12.8329 25 12.8366 25 12.8403 25C12.844 25 12.8477 25 12.8514 25C12.8551 25 12.8587 25 12.8624 25C12.8661 25 12.8698 25 12.8735 25C12.8772 25 12.8809 25 12.8846 25C12.8882 25 12.8919 25 12.8956 25C12.8993 25 12.903 25 12.9067 25C12.9104 25 12.914 25 12.9177 25C12.9214 25 12.9251 25 12.9288 25C12.9325 25 12.9362 25 12.9399 25C12.9435 25 12.9472 25 12.9509 25C12.9546 25 12.9583 25 12.962 25C12.9657 25 12.9693 25 12.973 25C12.9767 25 12.9804 25 12.9841 25C12.9878 25 12.9915 25 12.9951 25C12.9988 25 13.0025 25 13.0062 25C13.0099 25 13.0136 25 13.0173 25C13.0209 25 13.0246 25 13.0283 25C13.032 25 13.0357 25 13.0394 25C13.043 25 13.0467 25 13.0504 25C13.0541 25 13.0578 25 13.0615 25C13.0651 25 13.0688 25 13.0725 25C13.0762 25 13.0799 25 13.0836 25C13.0872 25 13.0909 25 13.0946 25C13.0983 25 13.102 25 13.1056 25C13.1093 25 13.113 25 13.1167 25C13.1204 25 13.124 25 13.1277 25C13.1314 25 13.1351 25 13.1387 25C13.1424 25 13.1461 25 13.1498 25C13.1535 25 13.1571 25 13.1608 25C13.1645 25 13.1682 25 13.1718 25C13.1755 25 13.1792 25 13.1829 25C13.1865 25 13.1902 25 13.1939 25C13.1976 25 13.2012 25 13.2049 25C13.2086 25 13.2122 25 13.2159 25C13.2196 25 13.2233 25 13.2269 25C13.2306 25 13.2343 25 13.2379 25C13.2416 25 13.2453 25 13.2489 25C13.2526 25 13.2563 25 13.2599 25C13.2636 25 13.2673 25 13.2709 25C13.2746 25 13.2783 25 13.2819 25C13.2856 25 13.2892 25 13.2929 25C13.2966 25 13.3002 25 13.3039 25C13.3075 25 13.3112 25 13.3149 25C13.3185 25 13.3222 25 13.3258 25C13.3295 25 13.3332 25 13.3368 25C13.3405 25 13.3441 25 13.3478 25C13.3514 25 13.3551 25 13.3587 25C13.3624 25 13.366 25 13.3697 25C13.3733 25 13.377 25 13.3806 25C13.3843 25 13.3879 25 13.3916 25C13.3952 25 13.3989 25 13.4025 25C13.4062 25 13.4098 25 13.4135 25C13.4171 25 13.4208 25 13.4244 25C13.428 25 13.4317 25 13.4353 25C13.439 25 13.4426 25 13.4462 25C13.4499 25 13.4535 25 13.4571 25C13.4608 25 13.4644 25 13.4681 25C13.4717 25 13.4753 25 13.479 25C13.4826 25 13.4862 25 13.4898 25C13.4935 25 13.4971 25 13.5007 25C13.5044 25 13.508 25 13.5116 25C13.5152 25 13.5189 25 13.5225 25C13.5261 25 13.5297 25 13.5333 25C13.537 25 13.5406 25 13.5442 25C13.5478 25 13.5514 25 13.5551 25C13.5587 25 13.5623 25 13.5659 25C13.5695 25 13.5731 25 13.5767 25C13.5804 25 13.584 25 13.5876 25C13.5912 25 13.5948 25 13.5984 25C13.602 25 13.6056 25 13.6092 25C13.6128 25 13.6164 25 13.62 25C13.6236 25 13.6272 25 13.6308 25C13.6344 25 13.638 25 13.6416 25C13.6452 25 13.6488 25 13.6524 25C13.656 25 13.6596 25 13.6632 25C13.6668 25 13.6704 25 13.6739 25C13.6775 25 13.6811 25 13.6847 25C13.6883 25 13.6919 25 13.6955 25C13.699 25 13.7026 25 13.7062 25C13.7098 25 13.7134 25 13.7169 25C13.7205 25 13.7241 25 13.7277 25C13.7312 25 13.7348 25 13.7384 25C13.7419 25 13.7455 25 13.7491 25C13.7526 25 13.7562 25 13.7598 25C13.7633 25 13.7669 25 13.7705 25C13.774 25 13.7776 25 13.7811 25C13.7847 25 13.7883 25 13.7918 25C13.7954 25 13.7989 25 13.8025 25C13.806 25 13.8096 25 13.8131 25C13.8167 25 13.8202 25 13.8238 25C13.8273 25 13.8308 25 13.8344 25C13.8379 25 13.8415 25 13.845 25C13.8485 25 13.8521 25 13.8556 25C13.8592 25 13.8627 25 13.8662 25C13.8697 25 13.8733 25 13.8768 25C13.8803 25 13.8839 25 13.8874 25C13.8909 25 13.8944 25 13.8979 25C13.9015 25 13.905 25 13.9085 25C13.912 25 13.9155 25 13.919 25C13.9226 25 13.9261 25 13.9296 25C13.9331 25 13.9366 25 13.9401 25C13.9436 25 13.9471 25 13.9506 25C13.9541 25 13.9576 25 13.9611 25C13.9646 25 13.9681 25 13.9716 25C13.9751 25 13.9786 25 13.9821 25C13.9856 25 13.989 25 13.9925 25C13.996 25 13.9995 25 14.003 25C14.0065 25 14.0099 25 14.0134 25C14.0169 25 14.0204 25 14.0238 25C14.0273 25 14.0308 25 14.0343 25C14.0377 25 14.0412 25 14.0447 25C14.0481 25 14.0516 25 14.055 25C14.0585 25 14.062 25 14.0654 25C14.0689 25 14.0723 25 14.0758 25C14.0792 25 14.0827 25 14.0861 25C14.0896 25 14.093 25 14.0965 25C14.0999 25 14.1034 25 14.1068 25C14.1102 25 14.1137 25 14.1171 25C14.1205 25 14.124 25 14.1274 25C14.1308 25 14.1343 25 14.1377 25C14.1411 25 14.1445 25 14.148 25C14.1514 25 14.1548 25 14.1582 25C14.1616 25 14.165 25 14.1685 25C14.1719 25 14.1753 25 14.1787 25C14.1821 25 14.1855 25 14.1889 25C14.1923 25 14.1957 25 14.1991 25C14.2025 25 14.2059 25 14.2093 25C14.2127 25 14.2161 25 14.2194 25C14.2228 25 14.2262 25 14.2296 25C14.233 25 14.2364 25 14.2397 25C14.2431 25 14.2465 25 14.2499 25C14.2532 25 14.2566 25 14.26 25C14.2634 25 14.2667 25 14.2701 25C14.2734 25 14.2768 25 14.2802 25C14.2835 25 14.2869 25 14.2902 25C14.2936 25 14.2969 25 14.3003 25C14.3036 25 14.307 25 14.3103 25C14.3136 25 14.317 25 14.3203 25C14.3237 25 14.327 25 14.3303 25C14.3337 25 14.337 25 14.3403 25C14.3436 25 14.347 25 14.3503 25C14.3536 25 14.3569 25 14.3602 25C14.3636 25 14.3669 25 14.3702 25C14.3735 25 14.3768 25 14.3801 25C14.3834 25 14.3867 25 14.39 25C14.3933 25 14.3966 25 14.3999 25C14.4032 25 14.4065 25 14.4098 25C14.413 25 14.4163 25 14.4196 25C14.4229 25 14.4262 25 14.4294 25C14.4327 25 14.436 25 14.4393 25C14.4425 25 14.4458 25 14.4491 25C14.4523 25 14.4556 25 14.4589 25C14.4621 25 14.4654 25 14.4686 25C14.4719 25 14.4751 25 14.4784 25C14.4816 25 14.4849 25 14.4881 25C14.4913 25 14.4946 25 14.4978 25C14.5011 25 14.5043 25 14.5075 25C14.5107 25 14.514 25 14.5172 25C14.5204 25 14.5236 25 14.5268 25C14.5301 25 14.5333 25 14.5365 25C14.5397 25 14.5429 25 14.5461 25C14.5493 25 14.5525 25 14.5557 25C14.5589 25 14.5621 25 14.5653 25C14.5685 25 14.5717 25 14.5749 25C14.5781 25 14.5812 25 14.5844 25C14.5876 25 14.5908 25 14.5939 25C14.5971 25 14.6003 25 14.6035 25C14.6066 25 14.6098 25 14.6129 25C14.6161 25 14.6193 25 14.6224 25C14.6256 25 14.6287 25 14.6319 25C14.635 25 14.6382 25 14.6413 25C14.6444 25 14.6476 25 14.6507 25C14.6538 25 14.657 25 14.6601 25C14.6632 25 14.6663 25 14.6695 25C14.6726 25 14.6757 25 14.6788 25C14.6819 25 14.685 25 14.6881 25C14.6913 25 14.6944 25 14.6975 25C14.7006 25 14.7037 25 14.7067 25C14.7098 25 14.7129 25 14.716 25C14.7191 25 14.7222 25 14.7253 25C14.7283 25 14.7314 25 14.7345 25C14.7376 25 14.7406 25 14.7437 25C14.7468 25 14.7498 25 14.7529 25C14.7559 25 14.759 25 14.762 25C14.7651 25 14.7681 25 14.7712 25C14.7742 25 14.7773 25 14.7803 25C14.7833 25 14.7864 25 14.7894 25C14.7924 25 14.7955 25 14.7985 25C14.8015 25 14.8045 25 14.8075 25C14.8105 25 14.8136 25 14.8166 25C14.8196 25 14.8226 25 14.8256 25C14.8286 25 14.8316 25 14.8346 25C14.8376 25 14.8405 25 14.8435 25C14.8465 25 14.8495 25 14.8525 25C14.8555 25 14.8584 25 14.8614 25C14.8644 25 14.8673 25 14.8703 25C14.8733 25 14.8762 25 14.8792 25C14.8821 25 14.8851 25 14.888 25C14.891 25 14.8939 25 14.8969 25C14.8998 25 14.9027 25 14.9057 25C14.9086 25 14.9115 25 14.9144 25C14.9174 25 14.9203 25 14.9232 25C14.9261 25 14.929 25 14.9319 25C14.9349 25 14.9378 25 14.9407 25C14.9436 25 14.9465 25 14.9493 25C14.9522 25 14.9551 25 14.958 25C14.9609 25 14.9638 25 14.9666 25C14.9695 25 14.9724 25 14.9753 25C14.9781 25 14.981 25 14.9839 25C14.9867 25 14.9896 25 14.9924 25C14.9953 25 14.9981 25 15.001 25C15.0038 25 15.0067 25 15.0095 25C15.0123 25 15.0152 25 15.018 25C15.0208 25 15.0236 25 15.0265 25C15.0293 25 15.0321 25 15.0349 25C15.0377 25 15.0405 25 15.0433 25C15.0461 25 15.0489 25 15.0517 25C15.0545 25 15.0573 25 15.0601 25C15.0629 25 15.0656 25 15.0684 25C15.0712 25 15.074 25 15.0767 25C15.0795 25 15.0823 25 15.085 25C15.0878 25 15.0905 25 15.0933 25C15.096 25 15.0988 25 15.1015 25C15.1043 25 15.107 25 15.1097 25C15.1125 25 15.1152 25 15.1179 25C15.1207 25 15.1234 25 15.1261 25C15.1288 25 15.1315 25 15.1342 25C15.1369 25 15.1396 25 15.1423 25C15.145 25 15.1477 25 15.1504 25C15.1531 25 15.1558 25 15.1585 25C15.1612 25 15.1638 25 15.1665 25C15.1692 25 15.1718 25 15.1745 25C15.1772 25 15.1798 25 15.1825 25C15.1851 25 15.1878 25 15.1904 25C15.1931 25 15.1957 25 15.1983 25C15.201 25 15.2036 25 15.2062 25C15.2089 25 15.2115 25 15.2141 25C15.2167 25 15.2193 25 15.2219 25C15.2245 25 15.2271 25 15.2297 25C15.2323 25 15.2349 25 15.2375 25C15.2401 25 15.2427 25 15.2453 25C15.2479 25 15.2504 25 15.253 25C15.2556 25 15.2581 25 15.2607 25C15.2633 25 15.2658 25 15.2684 25C15.2709 25 15.2735 25 15.276 25C15.2785 25 15.2811 25 15.2836 25C15.2861 25 15.2887 25 15.2912 25C15.2937 25 15.2962 25 15.2987 25C15.3013 25 15.3038 25 15.3063 25C15.3088 25 15.3113 25 15.3138 25C15.3163 25 15.3187 25 15.3212 25C15.3237 25 15.3262 25 15.3287 25C15.3311 25 15.3336 25 15.3361 25C15.3385 25 15.341 25 15.3434 25C15.3459 25 15.3483 25 15.3508 25C15.3532 25 15.3557 25 15.3581 25C15.3605 25 15.363 25 15.3654 25C15.3678 25 15.3702 25 15.3726 25C15.3751 25 15.3775 25 15.3799 25C15.3823 25 15.3847 25 15.3871 25C15.3895 25 15.3918 25 15.3942 25C15.3966 25 15.399 25 15.4014 25C15.4037 25 15.4061 25 15.4085 25C15.4108 25 15.4132 25 15.4155 25C15.4179 25 15.4202 25 15.4226 25C15.4249 25 15.4273 25 15.4296 25C15.4319 25 15.4342 25 15.4366 25C15.4389 25 15.4412 25 15.4435 25C15.4458 25 15.4481 25 15.4504 25C15.4527 25 15.455 25 15.4573 25C15.4596 25 15.4619 25 15.4642 25C15.4664 25 15.4687 25 15.471 25C15.4733 25 15.4755 25 15.4778 25C15.48 25 15.4823 25 15.4845 25C15.4868 25 15.489 25 15.4913 25C15.4935 25 15.4957 25 15.4979 25C15.5002 25 15.5024 25 15.5046 25C15.5068 25 15.509 25 15.5112 25C15.5134 25 15.5156 25 15.5178 25C15.52 25 15.5222 25 15.5244 25C15.5266 25 15.5287 25 15.5309 25C15.5331 25 15.5353 25 15.5374 25C15.5396 25 15.5417 25 15.5439 25C15.546 25 15.5482 25 15.5503 25C15.5524 25 15.5546 25 15.5567 25C15.5588 25 15.5609 25 15.5631 25C15.5652 25 15.5673 25 15.5694 25C15.5715 25 15.5736 25 15.5757 25C15.5778 25 15.5799 25 15.5819 25C15.584 25 15.5861 25 15.5882 25C15.5902 25 15.5923 25 15.5944 25C15.5964 25 15.5985 25 15.6005 25C15.6026 25 15.6046 25 15.6066 25C15.6087 25 15.6107 25 15.6127 25C15.6148 25 15.6168 25 15.6188 25C15.6208 25 15.6228 25 15.6248 25C15.6268 25 15.6288 25 15.6308 25C15.6328 25 15.6348 25 15.6367 25C15.6387 25 15.6407 25 15.6427 25C15.6446 25 15.6466 25 15.6485 25C15.6505 25 15.6524 25 15.6544 25C15.6563 25 15.6583 25 15.6602 25C15.6621 25 15.6641 25 15.666 25C15.6679 25 15.6698 25 15.6717 25C15.6736 25 15.6755 25 15.6774 25C15.6793 25 15.6812 25 15.6831 25C15.685 25 15.6868 25 15.6887 25C15.6906 25 15.6924 25 15.6943 25C15.6962 25 15.698 25 15.6999 25C15.7017 25 15.7036 25 15.7054 25C15.7072 25 15.709 25 15.7109 25C15.7127 25 15.7145 25 15.7163 25C15.7181 25 15.7199 25 15.7217 25C15.7235 25 15.7253 25 15.7271 25C15.7289 25 15.7307 25 15.7324 25C15.7342 25 15.736 25 15.7377 25C15.7395 25 15.7413 25 15.743 25C15.7448 25 15.7465 25 15.7482 25C15.75 25 15.7517 25 15.7534 25C15.7551 25 15.7569 25 15.7586 25C15.7603 25 15.762 25 15.7637 25C15.7654 25 15.7671 25 15.7688 25C15.7704 25 15.7721 25 15.7738 25C15.7755 25 15.7771 25 15.7788 25C15.7805 25 15.7821 25 15.7838 25C15.7854 25 15.787 25 15.7887 25C15.7903 25 15.7919 25 15.7936 25C15.7952 25 15.7968 25 15.7984 25C15.8 25 15.8016 25 15.8032 25C15.8048 25 15.8064 25 15.808 25C15.8096 25 15.8111 25 15.8127 25C15.8143 25 15.8159 25 15.8174 25C15.819 25 15.8205 25 15.8221 25C15.8236 25 15.8251 25 15.8267 25C15.8282 25 15.8297 25 15.8312 25C15.8328 25 15.8343 25 15.8358 25C15.8373 25 15.8388 25 15.8403 25C15.8418 25 15.8432 25 15.8447 25C15.8462 25 15.8477 25 15.8491 25C15.8506 25 15.8521 25 15.8535 25C15.855 25 15.8564 25 15.8578 25C15.8593 25 15.8607 25 15.8621 25C15.8636 25 15.865 25 15.8664 25C15.8678 25 15.8692 25 15.8706 25C15.872 25 15.8734 25 15.8748 25C15.8762 25 15.8775 25 15.8789 25C15.8803 25 15.8816 25 15.883 25C15.8844 25 15.8857 25 15.887 25C15.8884 25 15.8897 25 15.8911 25C15.8924 25 15.8937 25 15.895 25C15.8963 25 15.8976 25 15.8989 25C15.9002 25 15.9015 25 15.9028 25C15.9041 25 15.9054 25 15.9067 25C15.9079 25 15.9092 25 15.9105 25C15.9117 25 15.913 25 15.9142 25C15.9155 25 15.9167 25 15.918 25C15.9192 25 15.9204 25 15.9216 25C15.9228 25 15.9241 25 15.9253 25C15.9265 25 15.9277 25 15.9289 25C15.93 25 15.9312 25 15.9324 25C15.9336 25 15.9347 25 15.9359 25C15.9371 25 15.9382 25 15.9394 25C15.9405 25 15.9417 25 15.9428 25C15.9439 25 15.945 25 15.9462 25C15.9473 25 15.9484 25 15.9495 25C15.9506 25 15.9517 25 15.9528 25C15.9539 25 15.955 25 15.956 25C15.9571 25 15.9582 25 15.9592 25C15.9603 25 15.9614 25 15.9624 25C15.9635 25 15.9645 25 15.9655 25C15.9666 25 15.9676 25 15.9686 25C15.9696 25 15.9706 25 15.9716 25C15.9726 25 15.9736 25 15.9746 25C15.9756 25 15.9766 25 15.9776 25C15.9785 25 15.9795 25 15.9805 25C15.9814 25 15.9824 25 15.9833 25C15.9843 25 15.9852 25 15.9861 25C15.987 25 15.988 25 15.9889 25C15.9898 25 15.9907 25 15.9916 25C15.9925 25 15.9934 25 15.9943 25C15.9952 25 15.996 25 15.9969 25C15.9978 25 15.9986 25 15.9995 25C16.0003 25 16.0012 25 16.002 25C16.0029 25 16.0037 25 16.0045 25C16.0054 25 16.0062 25 16.007 25C16.0078 25 16.0086 25 16.0094 25C16.0102 25 16.011 25 16.0117 25C16.0125 25 16.0133 25 16.014 25C16.0148 25 16.0156 25 16.0163 25C16.0171 25 16.0178 25 16.0185 25C16.0193 25 16.02 25 16.0207 25C16.0214 25 16.0221 25 16.0228 25C16.0235 25 16.0242 25 16.0249 25C16.0256 25 16.0263 25 16.027 25C16.0276 25 16.0283 25 16.0289 25C16.0296 25 16.0302 25 16.0309 25C16.0315 25 16.0322 25 16.0328 25C16.0334 25 16.034 25 16.0346 25C16.0352 25 16.0358 25 16.0364 25C16.037 25 16.0376 25 16.0382 25C16.0388 25 16.0393 25 16.0399 25C16.0405 25 16.041 25 16.0415 25C16.0421 25 16.0426 25 16.0432 25C16.0437 25 16.0442 25 16.0447 25C16.0452 25 16.0457 25 16.0462 25C16.0467 25 16.0472 25 16.0477 25C16.0482 25 16.0487 25 16.0491 25C16.0496 25 16.05 25 16.0505 25C16.0509 25 16.0514 25 16.0518 25C16.0523 25 16.0527 25 16.0531 25C16.0535 25 16.0539 25 16.0543 25C16.0547 25 16.0551 25 16.0555 25C16.0559 25 16.0563 25 16.0566 25C16.057 25 16.0574 25 16.0577 25C16.0581 25 16.0584 25 16.0587 25C16.0591 25 16.0594 25 16.0597 25C16.06 25 16.0604 25 16.0607 25C16.061 25 16.0613 25 16.0615 25C16.0618 25 16.0621 25 16.0624 25C16.0626 25 16.0629 25 16.0632 25C16.0634 25 16.0637 25 16.0639 25C16.0641 25 16.0644 25 16.0646 25C16.0648 25 16.065 25 16.0652 25C16.0654 25 16.0656 25 16.0658 25C16.066 25 16.0662 25 16.0663 25C16.0665 25 16.0667 25 16.0668 25C16.067 25 16.0671 25 16.0672 25C16.0674 25 16.0675 25 16.0676 25C16.0677 25 16.0679 25 16.068 25C16.0681 25 16.0682 25 16.0682 25C16.0683 25 16.0684 25 16.0685 25C16.0685 25 16.0686 25 16.0687 25C16.0687 25 16.0687 25 16.0688 25C16.0688 25 16.0688 25 16.0689 25C16.0689 25 16.0689 25 16.0689 24C16.0689 23 16.0689 23 16.0689 23C16.0688 23 16.0688 23 16.0688 23C16.0687 23 16.0687 23 16.0687 23C16.0686 23 16.0685 23 16.0685 23C16.0684 23 16.0683 23 16.0682 23C16.0682 23 16.0681 23 16.068 23C16.0679 23 16.0677 23 16.0676 23C16.0675 23 16.0674 23 16.0672 23C16.0671 23 16.067 23 16.0668 23C16.0667 23 16.0665 23 16.0663 23C16.0662 23 16.066 23 16.0658 23C16.0656 23 16.0654 23 16.0652 23C16.065 23 16.0648 23 16.0646 23C16.0644 23 16.0641 23 16.0639 23C16.0637 23 16.0634 23 16.0632 23C16.0629 23 16.0626 23 16.0624 23C16.0621 23 16.0618 23 16.0615 23C16.0613 23 16.061 23 16.0607 23C16.0604 23 16.06 23 16.0597 23C16.0594 23 16.0591 23 16.0587 23C16.0584 23 16.0581 23 16.0577 23C16.0574 23 16.057 23 16.0566 23C16.0563 23 16.0559 23 16.0555 23C16.0551 23 16.0547 23 16.0543 23C16.0539 23 16.0535 23 16.0531 23C16.0527 23 16.0523 23 16.0518 23C16.0514 23 16.0509 23 16.0505 23C16.05 23 16.0496 23 16.0491 23C16.0487 23 16.0482 23 16.0477 23C16.0472 23 16.0467 23 16.0462 23C16.0457 23 16.0452 23 16.0447 23C16.0442 23 16.0437 23 16.0432 23C16.0426 23 16.0421 23 16.0415 23C16.041 23 16.0405 23 16.0399 23C16.0393 23 16.0388 23 16.0382 23C16.0376 23 16.037 23 16.0364 23C16.0358 23 16.0352 23 16.0346 23C16.034 23 16.0334 23 16.0328 23C16.0322 23 16.0315 23 16.0309 23C16.0302 23 16.0296 23 16.0289 23C16.0283 23 16.0276 23 16.027 23C16.0263 23 16.0256 23 16.0249 23C16.0242 23 16.0235 23 16.0228 23C16.0221 23 16.0214 23 16.0207 23C16.02 23 16.0193 23 16.0185 23C16.0178 23 16.0171 23 16.0163 23C16.0156 23 16.0148 23 16.014 23C16.0133 23 16.0125 23 16.0117 23C16.011 23 16.0102 23 16.0094 23C16.0086 23 16.0078 23 16.007 23C16.0062 23 16.0054 23 16.0045 23C16.0037 23 16.0029 23 16.002 23C16.0012 23 16.0003 23 15.9995 23C15.9986 23 15.9978 23 15.9969 23C15.996 23 15.9952 23 15.9943 23C15.9934 23 15.9925 23 15.9916 23C15.9907 23 15.9898 23 15.9889 23C15.988 23 15.987 23 15.9861 23C15.9852 23 15.9843 23 15.9833 23C15.9824 23 15.9814 23 15.9805 23C15.9795 23 15.9785 23 15.9776 23C15.9766 23 15.9756 23 15.9746 23C15.9736 23 15.9726 23 15.9716 23C15.9706 23 15.9696 23 15.9686 23C15.9676 23 15.9666 23 15.9655 23C15.9645 23 15.9635 23 15.9624 23C15.9614 23 15.9603 23 15.9592 23C15.9582 23 15.9571 23 15.956 23C15.955 23 15.9539 23 15.9528 23C15.9517 23 15.9506 23 15.9495 23C15.9484 23 15.9473 23 15.9462 23C15.945 23 15.9439 23 15.9428 23C15.9417 23 15.9405 23 15.9394 23C15.9382 23 15.9371 23 15.9359 23C15.9347 23 15.9336 23 15.9324 23C15.9312 23 15.93 23 15.9289 23C15.9277 23 15.9265 23 15.9253 23C15.9241 23 15.9228 23 15.9216 23C15.9204 23 15.9192 23 15.918 23C15.9167 23 15.9155 23 15.9142 23C15.913 23 15.9117 23 15.9105 23C15.9092 23 15.9079 23 15.9067 23C15.9054 23 15.9041 23 15.9028 23C15.9015 23 15.9002 23 15.8989 23C15.8976 23 15.8963 23 15.895 23C15.8937 23 15.8924 23 15.8911 23C15.8897 23 15.8884 23 15.887 23C15.8857 23 15.8844 23 15.883 23C15.8816 23 15.8803 23 15.8789 23C15.8775 23 15.8762 23 15.8748 23C15.8734 23 15.872 23 15.8706 23C15.8692 23 15.8678 23 15.8664 23C15.865 23 15.8636 23 15.8621 23C15.8607 23 15.8593 23 15.8578 23C15.8564 23 15.855 23 15.8535 23C15.8521 23 15.8506 23 15.8491 23C15.8477 23 15.8462 23 15.8447 23C15.8432 23 15.8418 23 15.8403 23C15.8388 23 15.8373 23 15.8358 23C15.8343 23 15.8328 23 15.8312 23C15.8297 23 15.8282 23 15.8267 23C15.8251 23 15.8236 23 15.8221 23C15.8205 23 15.819 23 15.8174 23C15.8159 23 15.8143 23 15.8127 23C15.8111 23 15.8096 23 15.808 23C15.8064 23 15.8048 23 15.8032 23C15.8016 23 15.8 23 15.7984 23C15.7968 23 15.7952 23 15.7936 23C15.7919 23 15.7903 23 15.7887 23C15.787 23 15.7854 23 15.7838 23C15.7821 23 15.7805 23 15.7788 23C15.7771 23 15.7755 23 15.7738 23C15.7721 23 15.7704 23 15.7688 23C15.7671 23 15.7654 23 15.7637 23C15.762 23 15.7603 23 15.7586 23C15.7569 23 15.7551 23 15.7534 23C15.7517 23 15.75 23 15.7482 23C15.7465 23 15.7448 23 15.743 23C15.7413 23 15.7395 23 15.7377 23C15.736 23 15.7342 23 15.7324 23C15.7307 23 15.7289 23 15.7271 23C15.7253 23 15.7235 23 15.7217 23C15.7199 23 15.7181 23 15.7163 23C15.7145 23 15.7127 23 15.7109 23C15.709 23 15.7072 23 15.7054 23C15.7036 23 15.7017 23 15.6999 23C15.698 23 15.6962 23 15.6943 23C15.6924 23 15.6906 23 15.6887 23C15.6868 23 15.685 23 15.6831 23C15.6812 23 15.6793 23 15.6774 23C15.6755 23 15.6736 23 15.6717 23C15.6698 23 15.6679 23 15.666 23C15.6641 23 15.6621 23 15.6602 23C15.6583 23 15.6563 23 15.6544 23C15.6524 23 15.6505 23 15.6485 23C15.6466 23 15.6446 23 15.6427 23C15.6407 23 15.6387 23 15.6367 23C15.6348 23 15.6328 23 15.6308 23C15.6288 23 15.6268 23 15.6248 23C15.6228 23 15.6208 23 15.6188 23C15.6168 23 15.6148 23 15.6127 23C15.6107 23 15.6087 23 15.6066 23C15.6046 23 15.6026 23 15.6005 23C15.5985 23 15.5964 23 15.5944 23C15.5923 23 15.5902 23 15.5882 23C15.5861 23 15.584 23 15.5819 23C15.5799 23 15.5778 23 15.5757 23C15.5736 23 15.5715 23 15.5694 23C15.5673 23 15.5652 23 15.5631 23C15.5609 23 15.5588 23 15.5567 23C15.5546 23 15.5524 23 15.5503 23C15.5482 23 15.546 23 15.5439 23C15.5417 23 15.5396 23 15.5374 23C15.5353 23 15.5331 23 15.5309 23C15.5287 23 15.5266 23 15.5244 23C15.5222 23 15.52 23 15.5178 23C15.5156 23 15.5134 23 15.5112 23C15.509 23 15.5068 23 15.5046 23C15.5024 23 15.5002 23 15.4979 23C15.4957 23 15.4935 23 15.4913 23C15.489 23 15.4868 23 15.4845 23C15.4823 23 15.48 23 15.4778 23C15.4755 23 15.4733 23 15.471 23C15.4687 23 15.4664 23 15.4642 23C15.4619 23 15.4596 23 15.4573 23C15.455 23 15.4527 23 15.4504 23C15.4481 23 15.4458 23 15.4435 23C15.4412 23 15.4389 23 15.4366 23C15.4342 23 15.4319 23 15.4296 23C15.4273 23 15.4249 23 15.4226 23C15.4202 23 15.4179 23 15.4155 23C15.4132 23 15.4108 23 15.4085 23C15.4061 23 15.4037 23 15.4014 23C15.399 23 15.3966 23 15.3942 23C15.3918 23 15.3895 23 15.3871 23C15.3847 23 15.3823 23 15.3799 23C15.3775 23 15.3751 23 15.3726 23C15.3702 23 15.3678 23 15.3654 23C15.363 23 15.3605 23 15.3581 23C15.3557 23 15.3532 23 15.3508 23C15.3483 23 15.3459 23 15.3434 23C15.341 23 15.3385 23 15.3361 23C15.3336 23 15.3311 23 15.3287 23C15.3262 23 15.3237 23 15.3212 23C15.3187 23 15.3163 23 15.3138 23C15.3113 23 15.3088 23 15.3063 23C15.3038 23 15.3013 23 15.2987 23C15.2962 23 15.2937 23 15.2912 23C15.2887 23 15.2861 23 15.2836 23C15.2811 23 15.2785 23 15.276 23C15.2735 23 15.2709 23 15.2684 23C15.2658 23 15.2633 23 15.2607 23C15.2581 23 15.2556 23 15.253 23C15.2504 23 15.2479 23 15.2453 23C15.2427 23 15.2401 23 15.2375 23C15.2349 23 15.2323 23 15.2297 23C15.2271 23 15.2245 23 15.2219 23C15.2193 23 15.2167 23 15.2141 23C15.2115 23 15.2089 23 15.2062 23C15.2036 23 15.201 23 15.1983 23C15.1957 23 15.1931 23 15.1904 23C15.1878 23 15.1851 23 15.1825 23C15.1798 23 15.1772 23 15.1745 23C15.1718 23 15.1692 23 15.1665 23C15.1638 23 15.1612 23 15.1585 23C15.1558 23 15.1531 23 15.1504 23C15.1477 23 15.145 23 15.1423 23C15.1396 23 15.1369 23 15.1342 23C15.1315 23 15.1288 23 15.1261 23C15.1234 23 15.1207 23 15.1179 23C15.1152 23 15.1125 23 15.1097 23C15.107 23 15.1043 23 15.1015 23C15.0988 23 15.096 23 15.0933 23C15.0905 23 15.0878 23 15.085 23C15.0823 23 15.0795 23 15.0767 23C15.074 23 15.0712 23 15.0684 23C15.0656 23 15.0629 23 15.0601 23C15.0573 23 15.0545 23 15.0517 23C15.0489 23 15.0461 23 15.0433 23C15.0405 23 15.0377 23 15.0349 23C15.0321 23 15.0293 23 15.0265 23C15.0236 23 15.0208 23 15.018 23C15.0152 23 15.0123 23 15.0095 23C15.0067 23 15.0038 23 15.001 23C14.9981 23 14.9953 23 14.9924 23C14.9896 23 14.9867 23 14.9839 23C14.981 23 14.9781 23 14.9753 23C14.9724 23 14.9695 23 14.9666 23C14.9638 23 14.9609 23 14.958 23C14.9551 23 14.9522 23 14.9493 23C14.9465 23 14.9436 23 14.9407 23C14.9378 23 14.9349 23 14.9319 23C14.929 23 14.9261 23 14.9232 23C14.9203 23 14.9174 23 14.9144 23C14.9115 23 14.9086 23 14.9057 23C14.9027 23 14.8998 23 14.8969 23C14.8939 23 14.891 23 14.888 23C14.8851 23 14.8821 23 14.8792 23C14.8762 23 14.8733 23 14.8703 23C14.8673 23 14.8644 23 14.8614 23C14.8584 23 14.8555 23 14.8525 23C14.8495 23 14.8465 23 14.8435 23C14.8405 23 14.8376 23 14.8346 23C14.8316 23 14.8286 23 14.8256 23C14.8226 23 14.8196 23 14.8166 23C14.8136 23 14.8105 23 14.8075 23C14.8045 23 14.8015 23 14.7985 23C14.7955 23 14.7924 23 14.7894 23C14.7864 23 14.7833 23 14.7803 23C14.7773 23 14.7742 23 14.7712 23C14.7681 23 14.7651 23 14.762 23C14.759 23 14.7559 23 14.7529 23C14.7498 23 14.7468 23 14.7437 23C14.7406 23 14.7376 23 14.7345 23C14.7314 23 14.7283 23 14.7253 23C14.7222 23 14.7191 23 14.716 23C14.7129 23 14.7098 23 14.7067 23C14.7037 23 14.7006 23 14.6975 23C14.6944 23 14.6913 23 14.6881 23C14.685 23 14.6819 23 14.6788 23C14.6757 23 14.6726 23 14.6695 23C14.6663 23 14.6632 23 14.6601 23C14.657 23 14.6538 23 14.6507 23C14.6476 23 14.6444 23 14.6413 23C14.6382 23 14.635 23 14.6319 23C14.6287 23 14.6256 23 14.6224 23C14.6193 23 14.6161 23 14.6129 23C14.6098 23 14.6066 23 14.6035 23C14.6003 23 14.5971 23 14.5939 23C14.5908 23 14.5876 23 14.5844 23C14.5812 23 14.5781 23 14.5749 23C14.5717 23 14.5685 23 14.5653 23C14.5621 23 14.5589 23 14.5557 23C14.5525 23 14.5493 23 14.5461 23C14.5429 23 14.5397 23 14.5365 23C14.5333 23 14.5301 23 14.5268 23C14.5236 23 14.5204 23 14.5172 23C14.514 23 14.5107 23 14.5075 23C14.5043 23 14.5011 23 14.4978 23C14.4946 23 14.4913 23 14.4881 23C14.4849 23 14.4816 23 14.4784 23C14.4751 23 14.4719 23 14.4686 23C14.4654 23 14.4621 23 14.4589 23C14.4556 23 14.4523 23 14.4491 23C14.4458 23 14.4425 23 14.4393 23C14.436 23 14.4327 23 14.4294 23C14.4262 23 14.4229 23 14.4196 23C14.4163 23 14.413 23 14.4098 23C14.4065 23 14.4032 23 14.3999 23C14.3966 23 14.3933 23 14.39 23C14.3867 23 14.3834 23 14.3801 23C14.3768 23 14.3735 23 14.3702 23C14.3669 23 14.3636 23 14.3602 23C14.3569 23 14.3536 23 14.3503 23C14.347 23 14.3436 23 14.3403 23C14.337 23 14.3337 23 14.3303 23C14.327 23 14.3237 23 14.3203 23C14.317 23 14.3136 23 14.3103 23C14.307 23 14.3036 23 14.3003 23C14.2969 23 14.2936 23 14.2902 23C14.2869 23 14.2835 23 14.2802 23C14.2768 23 14.2734 23 14.2701 23C14.2667 23 14.2634 23 14.26 23C14.2566 23 14.2532 23 14.2499 23C14.2465 23 14.2431 23 14.2397 23C14.2364 23 14.233 23 14.2296 23C14.2262 23 14.2228 23 14.2194 23C14.2161 23 14.2127 23 14.2093 23C14.2059 23 14.2025 23 14.1991 23C14.1957 23 14.1923 23 14.1889 23C14.1855 23 14.1821 23 14.1787 23C14.1753 23 14.1719 23 14.1685 23C14.165 23 14.1616 23 14.1582 23C14.1548 23 14.1514 23 14.148 23C14.1445 23 14.1411 23 14.1377 23C14.1343 23 14.1308 23 14.1274 23C14.124 23 14.1205 23 14.1171 23C14.1137 23 14.1102 23 14.1068 23C14.1034 23 14.0999 23 14.0965 23C14.093 23 14.0896 23 14.0861 23C14.0827 23 14.0792 23 14.0758 23C14.0723 23 14.0689 23 14.0654 23C14.062 23 14.0585 23 14.055 23C14.0516 23 14.0481 23 14.0447 23C14.0412 23 14.0377 23 14.0343 23C14.0308 23 14.0273 23 14.0238 23C14.0204 23 14.0169 23 14.0134 23C14.0099 23 14.0065 23 14.003 23C13.9995 23 13.996 23 13.9925 23C13.989 23 13.9856 23 13.9821 23C13.9786 23 13.9751 23 13.9716 23C13.9681 23 13.9646 23 13.9611 23C13.9576 23 13.9541 23 13.9506 23C13.9471 23 13.9436 23 13.9401 23C13.9366 23 13.9331 23 13.9296 23C13.9261 23 13.9226 23 13.919 23C13.9155 23 13.912 23 13.9085 23C13.905 23 13.9015 23 13.8979 23C13.8944 23 13.8909 23 13.8874 23C13.8839 23 13.8803 23 13.8768 23C13.8733 23 13.8697 23 13.8662 23C13.8627 23 13.8592 23 13.8556 23C13.8521 23 13.8485 23 13.845 23C13.8415 23 13.8379 23 13.8344 23C13.8308 23 13.8273 23 13.8238 23C13.8202 23 13.8167 23 13.8131 23C13.8096 23 13.806 23 13.8025 23C13.7989 23 13.7954 23 13.7918 23C13.7883 23 13.7847 23 13.7811 23C13.7776 23 13.774 23 13.7705 23C13.7669 23 13.7633 23 13.7598 23C13.7562 23 13.7526 23 13.7491 23C13.7455 23 13.7419 23 13.7384 23C13.7348 23 13.7312 23 13.7277 23C13.7241 23 13.7205 23 13.7169 23C13.7134 23 13.7098 23 13.7062 23C13.7026 23 13.699 23 13.6955 23C13.6919 23 13.6883 23 13.6847 23C13.6811 23 13.6775 23 13.6739 23C13.6704 23 13.6668 23 13.6632 23C13.6596 23 13.656 23 13.6524 23C13.6488 23 13.6452 23 13.6416 23C13.638 23 13.6344 23 13.6308 23C13.6272 23 13.6236 23 13.62 23C13.6164 23 13.6128 23 13.6092 23C13.6056 23 13.602 23 13.5984 23C13.5948 23 13.5912 23 13.5876 23C13.584 23 13.5804 23 13.5767 23C13.5731 23 13.5695 23 13.5659 23C13.5623 23 13.5587 23 13.5551 23C13.5514 23 13.5478 23 13.5442 23C13.5406 23 13.537 23 13.5333 23C13.5297 23 13.5261 23 13.5225 23C13.5189 23 13.5152 23 13.5116 23C13.508 23 13.5044 23 13.5007 23C13.4971 23 13.4935 23 13.4898 23C13.4862 23 13.4826 23 13.479 23C13.4753 23 13.4717 23 13.4681 23C13.4644 23 13.4608 23 13.4571 23C13.4535 23 13.4499 23 13.4462 23C13.4426 23 13.439 23 13.4353 23C13.4317 23 13.428 23 13.4244 23C13.4208 23 13.4171 23 13.4135 23C13.4098 23 13.4062 23 13.4025 23C13.3989 23 13.3952 23 13.3916 23C13.3879 23 13.3843 23 13.3806 23C13.377 23 13.3733 23 13.3697 23C13.366 23 13.3624 23 13.3587 23C13.3551 23 13.3514 23 13.3478 23C13.3441 23 13.3405 23 13.3368 23C13.3332 23 13.3295 23 13.3258 23C13.3222 23 13.3185 23 13.3149 23C13.3112 23 13.3075 23 13.3039 23C13.3002 23 13.2966 23 13.2929 23C13.2892 23 13.2856 23 13.2819 23C13.2783 23 13.2746 23 13.2709 23C13.2673 23 13.2636 23 13.2599 23C13.2563 23 13.2526 23 13.2489 23C13.2453 23 13.2416 23 13.2379 23C13.2343 23 13.2306 23 13.2269 23C13.2233 23 13.2196 23 13.2159 23C13.2122 23 13.2086 23 13.2049 23C13.2012 23 13.1976 23 13.1939 23C13.1902 23 13.1865 23 13.1829 23C13.1792 23 13.1755 23 13.1718 23C13.1682 23 13.1645 23 13.1608 23C13.1571 23 13.1535 23 13.1498 23C13.1461 23 13.1424 23 13.1387 23C13.1351 23 13.1314 23 13.1277 23C13.124 23 13.1204 23 13.1167 23C13.113 23 13.1093 23 13.1056 23C13.102 23 13.0983 23 13.0946 23C13.0909 23 13.0872 23 13.0836 23C13.0799 23 13.0762 23 13.0725 23C13.0688 23 13.0651 23 13.0615 23C13.0578 23 13.0541 23 13.0504 23C13.0467 23 13.043 23 13.0394 23C13.0357 23 13.032 23 13.0283 23C13.0246 23 13.0209 23 13.0173 23C13.0136 23 13.0099 23 13.0062 23C13.0025 23 12.9988 23 12.9951 23C12.9915 23 12.9878 23 12.9841 23C12.9804 23 12.9767 23 12.973 23C12.9693 23 12.9657 23 12.962 23C12.9583 23 12.9546 23 12.9509 23C12.9472 23 12.9435 23 12.9399 23C12.9362 23 12.9325 23 12.9288 23C12.9251 23 12.9214 23 12.9177 23C12.914 23 12.9104 23 12.9067 23C12.903 23 12.8993 23 12.8956 23C12.8919 23 12.8882 23 12.8846 23C12.8809 23 12.8772 23 12.8735 23C12.8698 23 12.8661 23 12.8624 23C12.8587 23 12.8551 23 12.8514 23C12.8477 23 12.844 23 12.8403 23C12.8366 23 12.8329 23 12.8293 23C12.8256 23 12.8219 23 12.8182 23C12.8145 23 12.8108 23 12.8071 23C12.8035 23 12.7998 23 12.7961 23C12.7924 23 12.7887 23 12.785 23C12.7814 23 12.7777 23 12.774 23C12.7703 23 12.7666 23 12.7629 23C12.7592 23 12.7556 23 12.7519 23C12.7482 23 12.7445 23 12.7408 23C12.7372 23 12.7335 23 12.7298 23C12.7261 23 12.7224 23 12.7187 23C12.7151 23 12.7114 23 12.7077 23C12.704 23 12.7003 23 12.6967 23C12.693 23 12.6893 23 12.6856 23C12.6819 23 12.6783 23 12.6746 23C12.6709 23 12.6672 23 12.6636 23C12.6599 23 12.6562 23 12.6525 23C12.6488 23 12.6452 23 12.6415 23C12.6378 23 12.6341 23 12.6305 23C12.6268 23 12.6231 23 12.6194 23C12.6158 23 12.6121 23 12.6084 23C12.6048 23 12.6011 23 12.5974 23C12.5937 23 12.5901 23 12.5864 23C12.5827 23 12.5791 23 12.5754 23C12.5717 23 12.5681 23 12.5644 23C12.5607 23 12.5571 23 12.5534 23C12.5497 23 12.5461 23 12.5424 23C12.5387 23 12.5351 23 12.5314 23C12.5277 23 12.5241 23 12.5204 23C12.5167 23 12.5131 23 12.5094 23C12.5058 23 12.5021 23 12.4984 23C12.4948 23 12.4911 23 12.4875 23C12.4838 23 12.4801 23 12.4765 23C12.4728 23 12.4692 23 12.4655 23C12.4619 23 12.4582 23 12.4546 23C12.4509 23 12.4472 23 12.4436 23C12.4399 23 12.4363 23 12.4326 23C12.429 23 12.4253 23 12.4217 23C12.418 23 12.4144 23 12.4108 23C12.4071 23 12.4035 23 12.3998 23C12.3962 23 12.3925 23 12.3889 23C12.3852 23 12.3816 23 12.378 23C12.3743 23 12.3707 23 12.367 23C12.3634 23 12.3598 23 12.3561 23C12.3525 23 12.3488 23 12.3452 23C12.3416 23 12.3379 23 12.3343 23C12.3307 23 12.327 23 12.3234 23C12.3198 23 12.3162 23 12.3125 23C12.3089 23 12.3053 23 12.3016 23C12.298 23 12.2944 23 12.2908 23C12.2871 23 12.2835 23 12.2799 23C12.2763 23 12.2726 23 12.269 23C12.2654 23 12.2618 23 12.2582 23C12.2546 23 12.2509 23 12.2473 23C12.2437 23 12.2401 23 12.2365 23C12.2329 23 12.2293 23 12.2256 23C12.222 23 12.2184 23 12.2148 23C12.2112 23 12.2076 23 12.204 23C12.2004 23 12.1968 23 12.1932 23C12.1896 23 12.186 23 12.1824 23C12.1788 23 12.1752 23 12.1716 23C12.168 23 12.1644 23 12.1608 23C12.1572 23 12.1536 23 12.15 23C12.1464 23 12.1428 23 12.1392 23C12.1356 23 12.1321 23 12.1285 23C12.1249 23 12.1213 23 12.1177 23C12.1141 23 12.1106 23 12.107 23C12.1034 23 12.0998 23 12.0962 23C12.0927 23 12.0891 23 12.0855 23C12.0819 23 12.0784 23 12.0748 23C12.0712 23 12.0676 23 12.0641 23C12.0605 23 12.0569 23 12.0534 23C12.0498 23 12.0462 23 12.0427 23C12.0391 23 12.0356 23 12.032 23C12.0284 23 12.0249 23 12.0213 23C12.0178 23 12.0142 23 12.0107 23C12.0071 23 12.0036 23 12 23V25ZM16.0689 24C16.0689 23 16.0694 23 16.0698 23C16.0699 23 16.0704 23 16.0706 23C16.0711 23 16.0716 23 16.072 23C16.0728 23 16.0734 23 16.0737 23C16.0744 23 16.0742 23 16.0731 23C16.0708 23 16.065 22.9999 16.0559 22.9996C16.0377 22.999 16.0065 22.9976 15.9641 22.9946C15.879 22.9887 15.751 22.9762 15.5948 22.9507C15.2777 22.8987 14.8704 22.7966 14.4756 22.6026C14.0842 22.4102 13.7258 22.1382 13.4634 21.7512C13.2058 21.3714 13 20.8215 13 20H11C11 21.1785 11.3028 22.1286 11.8081 22.8738C12.3086 23.6118 12.9674 24.0898 13.5933 24.3974C14.2157 24.7034 14.8257 24.8513 15.2714 24.9243C15.4967 24.9613 15.6866 24.9801 15.824 24.9897C15.8929 24.9946 15.949 24.9971 15.9904 24.9985C16.0112 24.9992 16.0282 24.9995 16.0414 24.9998C16.0479 24.9999 16.0535 24.9999 16.0581 25C16.0604 25 16.0625 25 16.0643 25C16.0652 25 16.066 25 16.0668 25C16.0672 25 16.0677 25 16.0679 25C16.0684 25 16.0689 25 16.0689 24ZM11 20.5V30.5H13V20.5H11ZM12 27H8V29H12V27ZM31.2221 41.5735C30.4728 40.503 29.8397 39.5377 28.9858 38.9129C28.0526 38.23 26.9552 38 25.4174 38V40C26.7667 40 27.3653 40.2054 27.8047 40.5269C28.3235 40.9065 28.7396 41.5147 29.5836 42.7204L31.2221 41.5735Z" fill="#00619E"/>
<path d="M8 21V35M17 12H21M25 12H29M33 12H37" stroke="#00AED9" stroke-width="2" stroke-linecap="round"/>
<path d="M31.5172 26.4321C31.7269 26.0991 31.4876 25.6656 31.0941 25.6656H28.235L29.8797 19L24.4828 27.5679C24.2731 27.9009 24.5124 28.3344 24.9059 28.3344H27.765L26.1203 35L31.5172 26.4321Z" fill="#00AED9" stroke="#00AED9" stroke-linejoin="round"/>
</svg>
