<svg width="56" height="56" viewBox="0 0 56 56" fill="none" xmlns="http://www.w3.org/2000/svg">
<path d="M25.5172 27.0985C25.7269 26.7655 25.4876 26.332 25.0941 26.332H21.2937L23.3496 18L16.4828 28.9015C16.2731 29.2345 16.5124 29.668 16.9059 29.668H20.7063L18.6504 38L25.5172 27.0985Z" fill="#00AED9" stroke="#00AED9" stroke-linejoin="round"/>
<path d="M33 20H35C36.1046 20 37 20.8954 37 22V36C37 37.3807 38.1193 38.5 39.5 38.5C40.8807 38.5 42 37.3807 42 36V26M42 26C40.8954 26 40 25.1046 40 24V17.8973C40 16.3623 40.6098 14.8902 41.6952 13.8048L45 10.5L45.9 12M42 26C43.1046 26 44 25.1046 44 24V19.5L48 15.5L47.2325 14.2208M45.9 12L47.2325 11L48.5 13L47.2325 14.2208M45.9 12L47.2325 14.2208M17 46H25C29.4183 46 33 42.4183 33 38V18C33 13.5817 29.4183 10 25 10H17C12.5817 10 9 13.5817 9 18V38C9 42.4183 12.5817 46 17 46Z" stroke="#00619E" stroke-width="2" stroke-linecap="round" stroke-linejoin="round"/>
</svg>
