<svg width="56" height="56" viewBox="0 0 56 56" fill="none" xmlns="http://www.w3.org/2000/svg">
<path d="M34.981 9.28974C36.2722 10.5603 38.3438 10.5603 39.635 9.28974V9.28974C40.9262 8.01921 42.9978 8.01922 44.289 9.28974L46.616 11.5795C47.9264 12.8688 47.9264 14.9817 46.616 16.2711V16.2711C45.3057 17.5604 45.3057 19.6733 46.616 20.9626V20.9626C47.9264 22.252 47.9264 24.3648 46.616 25.6542V25.6542C45.3057 26.9436 45.3057 29.0564 46.616 30.3458V30.3458C47.9264 31.6352 47.9264 33.748 46.616 35.0374V35.0374C45.3057 36.3267 45.3057 38.4396 46.616 39.7289V39.7289C47.9264 41.0183 47.9264 43.1312 46.616 44.4205L44.289 46.7103C42.9978 47.9808 40.9262 47.9808 39.635 46.7103V46.7103C38.3438 45.4397 36.2722 45.4397 34.981 46.7103V46.7103C33.6898 47.9808 31.6182 47.9808 30.327 46.7103V46.7103C29.0358 45.4397 26.9642 45.4397 25.673 46.7103V46.7103C24.3818 47.9808 22.3102 47.9808 21.019 46.7103V46.7103C19.7278 45.4397 17.6562 45.4397 16.365 46.7103V46.7103C15.0738 47.9808 13.0022 47.9808 11.711 46.7103L9.38397 44.4205C8.07361 43.1312 8.07361 41.0183 9.38397 39.7289V39.7289C10.6943 38.4396 10.6943 36.3267 9.38397 35.0374V35.0374C8.07361 33.748 8.07361 31.6352 9.38397 30.3458V30.3458C10.6943 29.0564 10.6943 26.9436 9.38397 25.6542V25.6542C8.07361 24.3648 8.07361 22.252 9.38397 20.9626V20.9626C10.6943 19.6733 10.6943 17.5604 9.38397 16.2711V16.2711C8.07361 14.9817 8.07361 12.8688 9.38397 11.5795L11.711 9.28973C13.0022 8.01921 15.0738 8.01921 16.365 9.28974V9.28974C17.6562 10.5603 19.7278 10.5603 21.019 9.28974V9.28974C22.3102 8.01921 24.3818 8.01922 25.673 9.28974V9.28974C26.9642 10.5603 29.0358 10.5603 30.327 9.28974V9.28974C31.6182 8.01921 33.6898 8.01922 34.981 9.28974V9.28974Z" stroke="#00619E" stroke-width="2"/>
<path d="M26.5859 18.1005L18.1006 26.5858" stroke="#00AED9" stroke-width="2" stroke-linecap="round"/>
<path d="M37 18.9999L19 36.9999" stroke="#00AED9" stroke-width="2" stroke-linecap="round"/>
<path d="M37.8996 29.4142L29.4143 37.8995" stroke="#00AED9" stroke-width="2" stroke-linecap="round"/>
</svg>
