<svg width="56" height="56" viewBox="0 0 56 56" fill="none" xmlns="http://www.w3.org/2000/svg">
<rect x="37" y="9" width="8" height="4" rx="1.75217" stroke="#00619E" stroke-width="2"/>
<path d="M33 42V20.5043C33 18.5689 34.5689 17 36.5043 17H45.4957C47.4311 17 49 18.5689 49 20.5043V42" stroke="#00619E" stroke-width="2"/>
<path d="M45 22L38 38" stroke="#00AED9" stroke-width="2" stroke-linecap="round"/>
<path d="M31 42.7522C31 42.3368 31.3368 42 31.7522 42H35.1727C35.5615 42 35.945 42.0905 36.2927 42.2644L36.8129 42.5245C37.4383 42.8372 38.128 43 38.8273 43H43.1727C43.872 43 44.5617 42.8372 45.1871 42.5245L45.7073 42.2644C46.055 42.0905 46.4385 42 46.8273 42H50.2478C50.6632 42 51 42.3368 51 42.7522V46.2478C51 46.6632 50.6632 47 50.2478 47H31.7522C31.3368 47 31 46.6632 31 46.2478L31 42.7522Z" stroke="#00619E" stroke-width="2"/>
<rect x="11" y="9" width="8" height="4" rx="1.75217" stroke="#00619E" stroke-width="2"/>
<path d="M7 42V20.5043C7 18.5689 8.56894 17 10.5043 17H19.4957C21.4311 17 23 18.5689 23 20.5043V42" stroke="#00619E" stroke-width="2"/>
<path d="M11 22L18 38" stroke="#00AED9" stroke-width="2" stroke-linecap="round"/>
<path d="M5 42.7522C5 42.3368 5.33676 42 5.75217 42H9.17274C9.56153 42 9.94497 42.0905 10.2927 42.2644L10.8129 42.5245C11.4383 42.8372 12.128 43 12.8273 43H17.1727C17.872 43 18.5617 42.8372 19.1871 42.5245L19.7073 42.2644C20.055 42.0905 20.4385 42 20.8273 42H24.2478C24.6632 42 25 42.3368 25 42.7522V46.2478C25 46.6632 24.6632 47 24.2478 47H5.75217C5.33676 47 5 46.6632 5 46.2478L5 42.7522Z" stroke="#00619E" stroke-width="2"/>
</svg>
