<svg width="1440" height="240" viewBox="0 0 1440 240" fill="none" xmlns="http://www.w3.org/2000/svg">
<g clip-path="url(#clip0_5644_101681)">
<mask id="path-1-inside-1_5644_101681" fill="white">
<path d="M0 0H1440V240H0V0Z"/>
</mask>
<path d="M0 0H1440V240H0V0Z" fill="#228BE6"/>
<path d="M191.739 821.737C414.074 679.381 625.301 520.38 823.605 346.102C950.664 236.718 1037.19 128.663 1068.49 74.2119L1045.32 77.4364C960.276 94.0368 877.227 119.597 797.563 153.688C590.471 237.926 315.546 383.681 28.5615 570.052C-193.403 712.155 -404.253 870.911 -602.17 1044.95C-728.615 1155.28 -814.9 1263.71 -846.443 1317.79L-823.272 1314.56C-738.798 1297.91 -656.361 1272.21 -577.385 1237.91C-370.36 1153.99 -95.435 1008.23 191.739 821.737ZM-71.1695 416.893C156.465 266.952 395.03 134.302 642.514 20.0623C852.557 -70.3918 1007.02 -124.75 1133.14 -105.619C1155.05 -102.444 1176.07 -94.763 1194.87 -83.0586C1213.67 -71.3543 1229.83 -55.8812 1242.35 -37.6156C1253.91 -19.0543 1261.38 1.76552 1264.24 23.4488C1267.1 45.132 1265.3 67.1781 1258.95 88.1092C1249.14 126.016 1233.11 162.033 1211.51 194.692C1154.12 278.145 1087.06 354.523 1011.74 422.235C839.67 587.72 586.13 784.616 290.638 976.511C63.2609 1126.16 -174.982 1258.6 -422.1 1372.73C-632.143 1463.18 -785.593 1516.62 -914.596 1498.01C-936.637 1495.95 -957.924 1488.93 -976.863 1477.47C-995.802 1466.01 -1011.9 1450.42 -1023.96 1431.85C-1036.01 1413.29 -1043.71 1392.24 -1046.47 1370.28C-1049.24 1348.32 -1046.99 1326.01 -1039.91 1305.04C-1029.41 1267.97 -1013.49 1232.64 -992.685 1200.21C-935.119 1116.76 -868.355 1040.06 -793.651 971.528C-618.756 805.014 -366.662 608.788 -71.1695 416.893Z" fill="#106BC7"/>
</g>
<path d="M1440 239H0V241H1440V239Z" fill="#D9DDE9" mask="url(#path-1-inside-1_5644_101681)"/>
<defs>
<clipPath id="clip0_5644_101681">
<path d="M0 0H1440V240H0V0Z" fill="white"/>
</clipPath>
</defs>
</svg>
